<svg width="36" height="36" viewBox="0 0 36 36" fill="none" xmlns="http://www.w3.org/2000/svg">
<path d="M21.9375 24.8309H19.3324V16.3125C19.3324 16.1578 19.2058 16.0312 19.0512 16.0312H16.9418C16.7871 16.0312 16.6605 16.1578 16.6605 16.3125V24.8309H14.0625C13.8269 24.8309 13.6969 25.1016 13.841 25.2844L17.7785 30.266C17.8048 30.2996 17.8384 30.3268 17.8768 30.3455C17.9152 30.3642 17.9573 30.3739 18 30.3739C18.0427 30.3739 18.0848 30.3642 18.1232 30.3455C18.1615 30.3268 18.1952 30.2996 18.2215 30.266L22.159 25.2844C22.3031 25.1016 22.173 24.8309 21.9375 24.8309Z" fill="#333333"/>
<path d="M28.5258 12.8918C26.9156 8.64492 22.8129 5.625 18.007 5.625C13.2012 5.625 9.09844 8.64141 7.48828 12.8883C4.47539 13.6793 2.25 16.425 2.25 19.6875C2.25 23.5723 5.39648 26.7188 9.27773 26.7188H10.6875C10.8422 26.7188 10.9688 26.5922 10.9688 26.4375V24.3281C10.9688 24.1734 10.8422 24.0469 10.6875 24.0469H9.27773C8.09297 24.0469 6.97852 23.5758 6.14883 22.7215C5.32266 21.8707 4.8832 20.7246 4.92188 19.5363C4.95352 18.6082 5.26992 17.7363 5.84297 17.0016C6.43008 16.2527 7.25273 15.7078 8.1668 15.4652L9.49922 15.1172L9.98789 13.8305C10.2902 13.0289 10.7121 12.2801 11.243 11.6016C11.767 10.9291 12.3878 10.3379 13.0852 9.84727C14.5301 8.83125 16.2316 8.29336 18.007 8.29336C19.7824 8.29336 21.484 8.83125 22.9289 9.84727C23.6285 10.3395 24.2473 10.9301 24.7711 11.6016C25.302 12.2801 25.7238 13.0324 26.0262 13.8305L26.5113 15.1137L27.8402 15.4652C29.7457 15.9785 31.0781 17.7117 31.0781 19.6875C31.0781 20.8512 30.6246 21.948 29.802 22.7707C29.3985 23.1765 28.9186 23.4982 28.3899 23.7173C27.8613 23.9364 27.2945 24.0484 26.7223 24.0469H25.3125C25.1578 24.0469 25.0312 24.1734 25.0312 24.3281V26.4375C25.0312 26.5922 25.1578 26.7188 25.3125 26.7188H26.7223C30.6035 26.7188 33.75 23.5723 33.75 19.6875C33.75 16.4285 31.5316 13.6863 28.5258 12.8918Z" fill="#333333"/>
</svg>
