<svg width="249" height="80" viewBox="0 0 249 80" fill="none" xmlns="http://www.w3.org/2000/svg">
<path d="M3.24 7.872C4.248 7.752 5.328 7.668 6.48 7.62C7.656 7.548 8.892 7.512 10.188 7.512C11.748 7.512 13.14 7.704 14.364 8.088C15.588 8.472 16.62 9 17.46 9.672C18.3 10.344 18.936 11.16 19.368 12.12C19.8 13.056 20.016 14.076 20.016 15.18C20.016 16.524 19.752 17.724 19.224 18.78C18.72 19.812 18 20.688 17.064 21.408C16.152 22.128 15.048 22.68 13.752 23.064C12.456 23.424 11.028 23.604 9.468 23.604C8.46 23.604 7.524 23.568 6.66 23.496V33H3.24V7.872ZM9.9 20.76C12.06 20.76 13.716 20.292 14.868 19.356C16.044 18.396 16.632 17.1 16.632 15.468C16.632 13.908 16.068 12.672 14.94 11.76C13.836 10.848 12.228 10.392 10.116 10.392C9.468 10.392 8.856 10.404 8.28 10.428C7.704 10.452 7.164 10.488 6.66 10.536V20.58C7.044 20.628 7.5 20.676 8.028 20.724C8.58 20.748 9.204 20.76 9.9 20.76ZM27.038 33H23.798V14.28H27.038V33ZM25.418 11.076C24.794 11.076 24.254 10.86 23.798 10.428C23.366 9.972 23.15 9.432 23.15 8.808C23.15 8.112 23.354 7.56 23.762 7.152C24.17 6.744 24.722 6.54 25.418 6.54C26.042 6.54 26.57 6.768 27.002 7.224C27.458 7.656 27.686 8.184 27.686 8.808C27.686 9.504 27.482 10.056 27.074 10.464C26.666 10.872 26.114 11.076 25.418 11.076ZM34.85 24.972C35.066 26.724 35.678 28.092 36.686 29.076C37.694 30.06 39.026 30.552 40.682 30.552C41.762 30.552 42.734 30.444 43.598 30.228C44.462 29.988 45.29 29.688 46.082 29.328L46.838 32.1C45.974 32.508 45.002 32.832 43.922 33.072C42.842 33.312 41.63 33.432 40.286 33.432C38.942 33.432 37.73 33.216 36.65 32.784C35.57 32.328 34.646 31.692 33.878 30.876C33.134 30.036 32.558 29.016 32.15 27.816C31.742 26.592 31.538 25.2 31.538 23.64C31.538 22.248 31.742 20.952 32.15 19.752C32.558 18.552 33.134 17.52 33.878 16.656C34.622 15.768 35.51 15.084 36.542 14.604C37.574 14.1 38.726 13.848 39.998 13.848C41.342 13.848 42.518 14.076 43.526 14.532C44.534 14.988 45.374 15.612 46.046 16.404C46.718 17.196 47.222 18.12 47.558 19.176C47.894 20.232 48.062 21.348 48.062 22.524C48.062 23.364 48.026 24.18 47.954 24.972H34.85ZM39.926 16.656C38.51 16.656 37.346 17.136 36.434 18.096C35.546 19.056 35.006 20.472 34.814 22.344H45.074C45.074 20.52 44.618 19.116 43.706 18.132C42.794 17.148 41.534 16.656 39.926 16.656ZM64.332 17.7C63.636 17.364 62.988 17.124 62.388 16.98C61.788 16.812 61.116 16.728 60.372 16.728C59.532 16.728 58.74 16.884 57.996 17.196C57.276 17.508 56.652 17.964 56.124 18.564C55.596 19.14 55.176 19.848 54.864 20.688C54.576 21.528 54.432 22.488 54.432 23.568C54.432 24.552 54.564 25.464 54.828 26.304C55.116 27.144 55.512 27.888 56.016 28.536C56.52 29.16 57.12 29.652 57.816 30.012C58.512 30.372 59.292 30.552 60.156 30.552C61.068 30.552 61.848 30.456 62.496 30.264C63.144 30.072 63.84 29.772 64.584 29.364L65.592 32.1C64.824 32.508 63.984 32.832 63.072 33.072C62.16 33.312 61.116 33.432 59.94 33.432C58.596 33.432 57.384 33.192 56.304 32.712C55.224 32.232 54.3 31.56 53.532 30.696C52.764 29.832 52.164 28.8 51.732 27.6C51.324 26.4 51.12 25.08 51.12 23.64C51.12 22.296 51.324 21.036 51.732 19.86C52.164 18.66 52.776 17.616 53.568 16.728C54.36 15.84 55.308 15.144 56.412 14.64C57.54 14.112 58.8 13.848 60.192 13.848C61.272 13.848 62.208 13.944 63 14.136C63.792 14.328 64.56 14.604 65.304 14.964L64.332 17.7ZM71.0609 24.972C71.2769 26.724 71.8889 28.092 72.8969 29.076C73.9049 30.06 75.2369 30.552 76.8929 30.552C77.9729 30.552 78.9449 30.444 79.8089 30.228C80.6729 29.988 81.5009 29.688 82.2929 29.328L83.0489 32.1C82.1849 32.508 81.2129 32.832 80.1329 33.072C79.0529 33.312 77.8409 33.432 76.4969 33.432C75.1529 33.432 73.9409 33.216 72.8609 32.784C71.7809 32.328 70.8569 31.692 70.0889 30.876C69.3449 30.036 68.7689 29.016 68.3609 27.816C67.9529 26.592 67.7489 25.2 67.7489 23.64C67.7489 22.248 67.9529 20.952 68.3609 19.752C68.7689 18.552 69.3449 17.52 70.0889 16.656C70.8329 15.768 71.7209 15.084 72.7529 14.604C73.7849 14.1 74.9369 13.848 76.2089 13.848C77.5529 13.848 78.7289 14.076 79.7369 14.532C80.7449 14.988 81.5849 15.612 82.2569 16.404C82.9289 17.196 83.4329 18.12 83.7689 19.176C84.1049 20.232 84.2729 21.348 84.2729 22.524C84.2729 23.364 84.2369 24.18 84.1649 24.972H71.0609ZM76.1369 16.656C74.7209 16.656 73.5569 17.136 72.6449 18.096C71.7569 19.056 71.2169 20.472 71.0249 22.344H81.2849C81.2849 20.52 80.8289 19.116 79.9169 18.132C79.0049 17.148 77.7449 16.656 76.1369 16.656ZM113.28 23.64C113.28 22.704 113.124 21.816 112.812 20.976C112.524 20.136 112.104 19.404 111.552 18.78C111.024 18.156 110.388 17.664 109.644 17.304C108.924 16.92 108.132 16.728 107.268 16.728C105.372 16.728 103.896 17.352 102.84 18.6C101.784 19.848 101.256 21.504 101.256 23.568C101.256 24.504 101.4 25.404 101.688 26.268C102 27.108 102.42 27.852 102.948 28.5C103.5 29.124 104.136 29.628 104.856 30.012C105.6 30.372 106.404 30.552 107.268 30.552C108.204 30.552 109.044 30.384 109.788 30.048C110.532 29.712 111.156 29.244 111.66 28.644C112.188 28.02 112.584 27.288 112.848 26.448C113.136 25.608 113.28 24.672 113.28 23.64ZM97.9439 23.64C97.9439 22.128 98.1839 20.772 98.6639 19.572C99.1439 18.348 99.7919 17.316 100.608 16.476C101.448 15.636 102.432 14.988 103.56 14.532C104.712 14.076 105.948 13.848 107.268 13.848C108.564 13.848 109.776 14.076 110.904 14.532C112.056 14.988 113.052 15.636 113.892 16.476C114.732 17.316 115.392 18.336 115.872 19.536C116.352 20.736 116.592 22.08 116.592 23.568C116.592 25.056 116.352 26.412 115.872 27.636C115.416 28.836 114.768 29.868 113.928 30.732C113.088 31.596 112.092 32.268 110.94 32.748C109.812 33.204 108.588 33.432 107.268 33.432C105.924 33.432 104.676 33.192 103.524 32.712C102.396 32.232 101.412 31.56 100.572 30.696C99.7559 29.832 99.1079 28.8 98.6279 27.6C98.1719 26.4 97.9439 25.08 97.9439 23.64ZM131.376 9.852C130.872 9.588 130.332 9.348 129.756 9.132C129.18 8.916 128.544 8.808 127.848 8.808C126.84 8.808 126.024 9.132 125.4 9.78C124.8 10.404 124.5 11.328 124.5 12.552V14.964H130.044V17.772H124.5V33H121.26V17.772H118.38V14.964H121.26V12.768C121.26 11.712 121.416 10.764 121.728 9.924C122.04 9.084 122.472 8.364 123.024 7.764C123.576 7.164 124.248 6.708 125.04 6.396C125.832 6.084 126.696 5.928 127.632 5.928C128.64 5.928 129.504 6.048 130.224 6.288C130.968 6.504 131.676 6.78 132.348 7.116L131.376 9.852ZM146.62 20.364C146.62 21.876 146.812 23.256 147.196 24.504C147.604 25.728 148.156 26.784 148.852 27.672C149.572 28.56 150.424 29.244 151.408 29.724C152.392 30.204 153.472 30.444 154.648 30.444C155.824 30.444 156.844 30.312 157.708 30.048C158.572 29.76 159.412 29.376 160.228 28.896L161.272 31.74C160.384 32.22 159.364 32.628 158.212 32.964C157.084 33.276 155.764 33.432 154.252 33.432C152.596 33.432 151.084 33.132 149.716 32.532C148.372 31.932 147.208 31.08 146.224 29.976C145.24 28.848 144.472 27.492 143.92 25.908C143.392 24.3 143.128 22.5 143.128 20.508C143.128 18.588 143.392 16.824 143.92 15.216C144.472 13.608 145.252 12.228 146.26 11.076C147.268 9.9 148.48 8.988 149.896 8.34C151.336 7.692 152.932 7.368 154.684 7.368C155.908 7.368 157 7.488 157.96 7.728C158.944 7.944 159.868 8.256 160.732 8.664L159.688 11.544C158.944 11.184 158.176 10.896 157.384 10.68C156.616 10.464 155.704 10.356 154.648 10.356C153.496 10.356 152.428 10.584 151.444 11.04C150.46 11.472 149.608 12.12 148.888 12.984C148.168 13.848 147.604 14.904 147.196 16.152C146.812 17.376 146.62 18.78 146.62 20.364ZM163.233 23.748C163.233 22.356 163.449 21.06 163.881 19.86C164.313 18.636 164.913 17.58 165.681 16.692C166.473 15.804 167.409 15.108 168.489 14.604C169.593 14.1 170.793 13.848 172.089 13.848C173.169 13.848 174.141 14.04 175.005 14.424C175.893 14.784 176.661 15.24 177.309 15.792V14.28H180.261V28.464C180.261 29.376 180.477 29.976 180.909 30.264C181.365 30.528 181.857 30.66 182.385 30.66L181.701 33.18C179.397 33.18 178.005 32.244 177.525 30.372C177.237 30.756 176.901 31.14 176.517 31.524C176.157 31.884 175.737 32.208 175.257 32.496C174.777 32.784 174.237 33.012 173.637 33.18C173.037 33.348 172.377 33.432 171.657 33.432C170.481 33.432 169.377 33.204 168.345 32.748C167.337 32.292 166.449 31.644 165.681 30.804C164.937 29.964 164.337 28.956 163.881 27.78C163.449 26.58 163.233 25.236 163.233 23.748ZM172.377 30.552C173.289 30.552 174.153 30.336 174.969 29.904C175.785 29.472 176.469 28.908 177.021 28.212V18.168C176.373 17.712 175.653 17.352 174.861 17.088C174.093 16.8 173.277 16.656 172.413 16.656C171.549 16.656 170.757 16.824 170.037 17.16C169.317 17.496 168.693 17.976 168.165 18.6C167.661 19.2 167.265 19.932 166.977 20.796C166.689 21.66 166.545 22.608 166.545 23.64C166.545 24.648 166.689 25.584 166.977 26.448C167.265 27.288 167.673 28.02 168.201 28.644C168.729 29.244 169.341 29.712 170.037 30.048C170.757 30.384 171.537 30.552 172.377 30.552ZM186.712 6.36H189.952V21.588L198.412 13.92L200.284 15.972L193.048 22.38L201.868 31.2L199.636 33.36L189.952 23.388V33H186.712V6.36ZM206.623 24.972C206.839 26.724 207.451 28.092 208.459 29.076C209.467 30.06 210.799 30.552 212.455 30.552C213.535 30.552 214.507 30.444 215.371 30.228C216.235 29.988 217.063 29.688 217.855 29.328L218.611 32.1C217.747 32.508 216.775 32.832 215.695 33.072C214.615 33.312 213.403 33.432 212.059 33.432C210.715 33.432 209.503 33.216 208.423 32.784C207.343 32.328 206.419 31.692 205.651 30.876C204.907 30.036 204.331 29.016 203.923 27.816C203.515 26.592 203.311 25.2 203.311 23.64C203.311 22.248 203.515 20.952 203.923 19.752C204.331 18.552 204.907 17.52 205.651 16.656C206.395 15.768 207.283 15.084 208.315 14.604C209.347 14.1 210.499 13.848 211.771 13.848C213.115 13.848 214.291 14.076 215.299 14.532C216.307 14.988 217.147 15.612 217.819 16.404C218.491 17.196 218.995 18.12 219.331 19.176C219.667 20.232 219.835 21.348 219.835 22.524C219.835 23.364 219.799 24.18 219.727 24.972H206.623ZM211.699 16.656C210.283 16.656 209.119 17.136 208.207 18.096C207.319 19.056 206.779 20.472 206.587 22.344H216.847C216.847 20.52 216.391 19.116 215.479 18.132C214.567 17.148 213.307 16.656 211.699 16.656Z" fill="black"/>
<path d="M134.499 52.7818C133.067 52.9355 131.827 52.7427 130.78 52.2035C129.73 51.6404 129.151 50.8577 129.043 49.8554C128.907 48.5907 129.595 47.2376 131.106 45.7961C131.369 45.5506 131.572 45.4201 131.715 45.4048C131.859 45.3894 131.935 45.4294 131.945 45.5249C131.971 45.7635 131.801 45.9749 131.434 46.1591C130.213 47.3764 129.662 48.5339 129.779 49.6316C129.864 50.419 130.294 51.0488 131.068 51.5208C131.841 51.9689 132.764 52.1353 133.838 52.02C136.176 51.769 138.263 50.4105 140.098 47.9445C141.047 46.6599 141.439 45.254 141.275 43.7268C141.111 42.1996 140.417 41.1276 139.192 40.5108C138.165 39.9451 136.841 39.7493 135.218 39.9235C132.88 40.1746 130.592 41.0116 128.355 42.4345C125.595 44.1549 123.194 46.6334 121.152 49.8699C119.131 53.0799 118.268 56.057 118.562 58.8013C118.795 60.9728 119.716 62.5757 121.323 63.61C122.928 64.6205 124.828 65.0079 127.024 64.7722C129.529 64.5032 131.922 63.6308 134.201 62.1551C135.936 61.0033 137.393 59.616 138.57 57.993C138.906 57.5225 139.181 57.2757 139.396 57.2526C139.539 57.2373 139.625 57.3608 139.653 57.6233C139.679 57.8619 139.574 58.1266 139.34 58.4173C138.219 59.8894 136.531 61.3739 134.278 62.871C131.51 64.7372 128.634 65.8304 125.651 66.1506C122.692 66.4682 120.38 65.7268 118.714 63.9263C117.597 62.7428 116.943 61.2561 116.751 59.4664C116.666 58.6789 116.671 57.8216 116.764 56.8943C117.081 53.7707 118.456 50.6179 120.89 47.4358C122.648 45.1471 124.826 43.2841 127.423 41.8466C130.018 40.3853 132.532 39.524 134.966 39.2627C136.255 39.1243 137.393 39.159 138.381 39.3668C141.069 39.8989 142.545 41.3939 142.809 43.8518C142.97 45.3551 142.669 46.703 141.903 47.8955C139.998 50.8277 137.529 52.4565 134.499 52.7818ZM144.05 62.2927C143.787 62.3209 143.545 62.3107 143.322 62.2622C141.749 61.9966 140.893 61.2195 140.755 59.9309C140.575 58.2605 141.418 56.2149 143.282 53.7941C145.146 51.3733 146.914 50.0732 148.584 49.8939C149.133 49.8349 149.591 49.9427 149.958 50.217C150.347 50.4649 150.564 50.8037 150.611 51.2332C150.754 52.5695 149.877 53.9551 147.979 55.3898C146.105 56.822 144.536 57.606 143.271 57.7418C143.08 57.7623 142.911 57.7563 142.763 57.724C142.474 58.4067 142.368 59.106 142.445 59.8219C142.578 61.0628 143.229 61.6204 144.398 61.4949C145.592 61.3668 147.045 60.4022 148.758 58.601C150.088 57.2754 151.196 55.9014 152.081 54.4787C152.265 54.1693 152.429 54.0069 152.572 53.9916C152.739 53.9736 152.83 54.0363 152.846 54.1794C152.861 54.3226 152.787 54.5357 152.625 54.8187C151.518 56.6513 150.128 58.3212 148.456 59.8283C146.783 61.3355 145.314 62.1569 144.05 62.2927ZM149.708 51.2577C149.677 50.9713 149.352 50.8614 148.731 50.928C148.135 50.9921 147.326 51.5496 146.304 52.6007C144.934 54.003 143.904 55.429 143.215 56.8789C143.363 56.9112 143.521 56.9184 143.688 56.9005C144.595 56.8031 145.749 56.1965 147.149 55.0806C148.572 53.9383 149.412 52.7739 149.671 51.5875C149.706 51.4631 149.718 51.3531 149.708 51.2577ZM158.689 60.4315C156.899 60.6236 155.898 59.7294 155.685 57.7488C155.577 56.7465 155.722 55.6206 156.119 54.3711C156.516 53.1216 156.981 52.0579 157.514 51.18C157.398 51.2166 157.244 51.2452 157.053 51.2657C156.48 51.3272 155.959 50.9728 155.49 50.2024L153.211 53.923C151.928 55.9193 151.168 56.9302 150.929 56.9559C150.81 56.9687 150.745 56.9274 150.735 56.8319C150.709 56.5933 150.875 56.2255 151.232 55.7285C153.049 53.0955 154.298 50.8977 154.978 49.1351C155.304 47.0001 155.884 45.8877 156.719 45.7981C157.268 45.7392 157.568 45.9483 157.619 46.4256C157.671 46.9028 157.438 47.5434 156.921 48.3472L156.185 49.5848C156.238 50.0859 156.635 50.2968 157.375 50.2174C157.804 50.1713 158.265 49.9649 158.757 49.5983L159.626 48.9257C159.671 48.8967 159.789 48.872 159.98 48.8515C160.171 48.831 160.386 48.9285 160.627 49.1441C160.867 49.3597 160.962 49.5668 160.911 49.7654L158.775 53.1446C157.458 55.2653 156.861 56.8984 156.984 58.0438C157.104 59.1654 157.69 59.6698 158.74 59.5571C159.837 59.4392 161.123 58.7098 162.596 57.3689C163.476 56.5744 164.264 55.7054 164.959 54.7618C165.607 53.8233 165.966 53.3502 166.038 53.3425C166.205 53.3246 166.299 53.4111 166.319 53.602C166.337 53.769 166.252 53.9834 166.062 54.2451L165.055 55.6566C164.483 56.394 163.836 57.1151 163.115 57.8201C161.381 59.4304 159.906 60.3008 158.689 60.4315ZM173.559 46.9954L178.706 46.3705C178.783 46.4105 178.822 46.4425 178.825 46.4663C178.848 46.6811 177.389 47.1395 174.447 47.8415C171.529 48.541 169.954 48.9393 169.723 49.0365C169.313 49.4909 168.609 50.7976 167.61 52.9566C166.608 55.0917 166.157 56.6246 166.257 57.5552C166.352 58.4382 167.007 58.8143 168.224 58.6836C168.797 58.6222 169.53 58.3625 170.422 57.9046C171.314 57.4468 171.994 57.0359 172.462 56.6718C173.709 55.6932 175.008 54.3105 176.361 52.5239C176.66 52.154 176.868 51.9626 176.988 51.9498C177.059 51.9421 177.103 52.0098 177.118 52.153C177.134 52.2962 176.985 52.6018 176.674 53.0697C175.597 54.7302 174.333 56.109 172.881 57.2061C171.143 58.5514 169.427 59.3149 167.732 59.4968C166.993 59.5762 166.368 59.4864 165.857 59.2275C165.368 58.942 165.071 58.3102 164.966 57.3318C164.861 56.3534 165.147 54.971 165.824 53.1845C166.498 51.3741 167.018 50.027 167.381 49.1431C167.055 49.2506 166.772 49.3171 166.534 49.3427C165.842 49.417 165.466 49.1798 165.407 48.6309C165.364 48.2252 165.619 47.9081 166.174 47.6796C166.246 47.6719 166.352 47.6485 166.492 47.6092L168.569 47.3864C168.939 46.7914 169.36 46.1065 169.832 45.3317C170.408 44.4009 170.816 43.9227 171.054 43.8971C171.293 43.8715 171.601 43.9349 171.98 44.0874C172.358 44.2399 172.562 44.4474 172.59 44.7098C172.618 44.9723 172.129 45.8094 171.121 47.2209C171.744 47.1782 172.557 47.103 173.559 46.9954ZM182.28 42.9454C182.638 42.907 182.985 42.9904 183.321 43.1957C183.678 43.3747 183.873 43.6192 183.907 43.9294C183.94 44.2396 183.814 44.5307 183.53 44.8027C183.266 45.0482 182.956 45.1901 182.598 45.2286C182.24 45.267 181.892 45.1716 181.553 44.9424C181.239 44.7107 181.064 44.4277 181.028 44.0937C180.956 43.4255 181.374 43.0427 182.28 42.9454ZM177.412 58.6387C176.195 58.7694 175.502 58.0472 175.333 56.4723C175.194 55.1837 175.707 53.3303 176.872 50.9122C178.034 48.4702 179.043 47.1912 179.9 47.0751C180.138 47.0495 180.411 47.1168 180.718 47.2769C181.049 47.4345 181.224 47.6088 181.245 47.7997C181.143 47.9795 181.021 48.1858 180.877 48.4185C180.73 48.6273 180.574 48.8613 180.409 49.1205C180.244 49.3796 180.018 49.7538 179.733 50.243C179.445 50.7084 179.167 51.1606 178.901 51.5996C177.36 54.1064 176.636 55.8013 176.731 56.6842C176.823 57.5433 177.168 57.9408 177.764 57.8767C178.265 57.8229 178.916 57.4755 179.716 56.8344C181.588 55.3784 183.028 53.8478 184.039 52.2428C184.409 51.6479 184.666 51.3427 184.81 51.3273C184.977 51.3094 185.07 51.3959 185.091 51.5868C185.111 51.7777 184.878 52.189 184.391 52.8206C183.903 53.4522 183.51 53.953 183.212 54.3229C182.938 54.6903 182.747 54.9401 182.641 55.0722C182.532 55.1805 182.327 55.4076 182.026 55.7537C181.747 56.0734 181.53 56.3018 181.376 56.4391C181.221 56.5763 181.002 56.7809 180.717 57.0528C180.433 57.3248 180.177 57.5332 179.952 57.6781C179.723 57.7992 179.462 57.948 179.167 58.1245C178.689 58.393 178.104 58.5645 177.412 58.6387ZM196.881 38.4453C196.96 39.185 196.785 39.5779 196.355 39.6241C196.236 39.6369 196.106 39.5542 195.967 39.3761C195.711 39.0174 195.332 38.8649 194.831 38.9187C193.734 39.0365 192.792 39.9342 192.007 41.6116C191.849 41.9423 191.373 43.1279 190.578 45.1684L191.008 45.1223C193.609 44.8431 195.335 44.6215 196.186 44.4577C196.284 44.4713 196.337 44.5139 196.345 44.5855C196.365 44.7764 195.546 45.1299 193.888 45.6458C192.317 46.08 191.029 46.4476 190.024 46.7486C189.448 48.3552 188.748 50.2649 187.923 52.4775C186.206 56.7171 185.054 59.3632 184.467 60.4158C182.708 63.5977 180.839 65.295 178.858 65.5076C178.166 65.5819 177.538 65.3476 176.972 64.8049C176.386 64.2885 176.042 63.6737 175.942 62.9603C175.983 62.6663 176.075 62.5116 176.218 62.4962C176.289 62.4885 176.346 62.5669 176.388 62.7314C176.598 63.3365 176.887 63.7881 177.257 64.0863C177.627 64.3846 177.991 64.5144 178.349 64.476C180.378 64.2583 182.092 62.8069 183.494 60.122C184.295 58.5878 185.319 55.871 186.565 51.9716L187.999 47.1108C185.61 47.3431 184.386 47.1849 184.327 46.636C184.301 46.3974 184.387 46.183 184.584 45.9929C184.805 45.8003 184.998 45.695 185.166 45.677L188.538 45.3874C190.318 39.9343 192.186 37.1026 194.143 36.8926C194.883 36.8132 195.673 37.0904 196.513 37.7243C196.725 37.8947 196.847 38.1351 196.881 38.4453ZM199.024 41.1479C199.382 41.1095 199.729 41.1929 200.065 41.3983C200.422 41.5772 200.617 41.8217 200.65 42.1319C200.684 42.4422 200.558 42.7332 200.273 43.0052C200.01 43.2507 199.699 43.3926 199.342 43.4311C198.984 43.4695 198.635 43.3741 198.297 43.1449C197.982 42.9132 197.807 42.6303 197.771 42.2962C197.7 41.628 198.117 41.2453 199.024 41.1479ZM194.155 56.8413C192.938 56.9719 192.245 56.2498 192.076 54.6748C191.938 53.3862 192.451 51.5329 193.615 49.1147C194.777 46.6728 195.787 45.3937 196.643 45.2776C196.882 45.252 197.155 45.3193 197.461 45.4794C197.792 45.637 197.968 45.8113 197.988 46.0022C197.887 46.1821 197.764 46.3883 197.62 46.621C197.474 46.8299 197.318 47.0638 197.152 47.323C196.987 47.5821 196.762 47.9563 196.476 48.4455C196.188 48.9109 195.911 49.3631 195.644 49.8021C194.103 52.3089 193.38 54.0038 193.475 54.8867C193.567 55.7458 193.911 56.1433 194.508 56.0793C195.009 56.0255 195.66 55.678 196.46 55.037C198.331 53.5809 199.772 52.0504 200.782 50.4453C201.153 49.8504 201.41 49.5452 201.553 49.5298C201.72 49.5119 201.814 49.5984 201.834 49.7893C201.855 49.9802 201.622 50.3915 201.134 51.0231C200.647 51.6547 200.254 52.1555 199.956 52.5255C199.681 52.8928 199.491 53.1426 199.384 53.2747C199.275 53.383 199.071 53.6101 198.77 53.9562C198.49 54.2759 198.273 54.5043 198.119 54.6416C197.965 54.7788 197.746 54.9834 197.461 55.2554C197.176 55.5273 196.921 55.7357 196.695 55.8807C196.467 56.0017 196.205 56.1505 195.91 56.327C195.432 56.5955 194.847 56.767 194.155 56.8413ZM203.669 55.8923C203.407 55.9205 203.165 55.9103 202.942 55.8618C201.369 55.5962 200.513 54.8191 200.375 53.5305C200.195 51.8601 201.038 49.8145 202.902 47.3937C204.766 44.9728 206.534 43.6728 208.204 43.4934C208.753 43.4345 209.211 43.5422 209.578 43.8166C209.967 44.0645 210.189 44.451 210.246 44.976C210.3 45.4771 210.202 46.0307 209.953 46.6367C209.702 47.2188 209.266 47.5432 208.646 47.6098C208.025 47.6764 207.695 47.5188 207.654 47.137C207.626 46.8745 207.738 46.4641 207.992 45.9058C208.267 45.3211 208.404 45.0168 208.401 44.993C208.396 44.9452 208.358 44.9252 208.286 44.9329C207.626 45.0762 206.758 45.6521 205.684 46.6606C204.633 47.6665 203.925 48.4907 203.559 49.1334L202.382 51.3236C202.185 51.731 202.055 52.2036 201.992 52.7414C201.952 53.2766 201.947 53.6755 201.975 53.938C202.003 54.2005 202.179 54.4834 202.501 54.7867C202.847 55.0875 203.294 55.2084 203.843 55.1495C205.036 55.0214 206.442 54.1706 208.059 52.5969C209.674 50.9995 210.89 49.5171 211.709 48.1499C211.813 47.9939 211.948 47.907 212.115 47.889C212.282 47.8711 212.371 47.9099 212.381 48.0053C212.392 48.1008 212.345 48.2265 212.241 48.3825C211.115 50.2654 209.704 51.9617 208.008 53.4714C206.333 54.9547 204.886 55.7616 203.669 55.8923ZM221.807 42.6487L222.296 42.4875C222.559 42.4593 222.821 42.5398 223.083 42.7289C223.344 42.9181 223.482 43.0723 223.494 43.1916C223.507 43.3109 222.892 44.5477 221.648 46.9019C220.401 49.2323 219.824 50.827 219.917 51.686C219.924 51.7576 219.944 51.8279 219.975 51.897C220.154 52.433 220.446 52.6792 220.851 52.6357C222.092 52.5025 224.139 50.2069 226.991 45.749C227.053 45.6458 227.131 45.5891 227.227 45.5789C227.322 45.5686 227.38 45.659 227.4 45.8499C227.418 46.0169 227.335 46.2551 227.151 46.5645C224.535 50.973 222.427 53.2631 220.828 53.4347C220.614 53.4578 220.407 53.4437 220.208 53.3926C219.115 53.0997 218.505 52.3686 218.38 51.1993C218.336 50.7936 218.341 50.3828 218.392 49.9669L216.404 52.3528C215.129 53.7448 214.17 54.4754 213.525 54.5446C212.905 54.6112 212.286 54.4724 211.67 54.1282C210.975 53.7201 210.585 53.1223 210.5 52.3349C210.313 50.5929 211.307 48.3862 213.482 45.7147C215.655 43.0194 217.756 41.5629 219.784 41.3451C220.572 41.2606 221.126 41.4786 221.447 41.9993C221.539 42.1825 221.617 42.3432 221.68 42.4812C221.741 42.5954 221.783 42.6512 221.807 42.6487ZM212.05 52.603C212.142 53.4621 212.486 53.8596 213.083 53.7955C214.467 53.647 216.189 51.9293 218.25 48.6425L221.483 43.0092C221.257 42.6956 220.928 42.5619 220.499 42.608C219.043 42.7643 217.232 44.1053 215.065 46.631C212.896 49.1328 211.891 51.1235 212.05 52.603ZM233.892 40.5185L239.039 39.8935C239.116 39.9336 239.155 39.9655 239.158 39.9894C239.181 40.2042 237.722 40.6626 234.78 41.3646C231.862 42.064 230.287 42.4624 230.056 42.5596C229.646 43.0139 228.942 44.3206 227.943 46.4796C226.941 48.6147 226.49 50.1476 226.59 51.0783C226.685 51.9612 227.34 52.3373 228.557 52.2067C229.13 52.1452 229.863 51.8855 230.755 51.4277C231.647 50.9698 232.327 50.5589 232.795 50.1949C234.042 49.2162 235.341 47.8336 236.694 46.0469C236.993 45.677 237.201 45.4856 237.321 45.4728C237.392 45.4651 237.436 45.5329 237.451 45.6761C237.467 45.8192 237.318 46.1248 237.007 46.5928C235.93 48.2532 234.666 49.632 233.214 50.7292C231.476 52.0744 229.76 52.838 228.065 53.0198C227.326 53.0993 226.701 53.0095 226.19 52.7505C225.701 52.4651 225.404 51.8332 225.299 50.8548C225.194 49.8764 225.48 48.494 226.157 46.7075C226.831 44.8972 227.351 43.5501 227.714 42.6662C227.388 42.7736 227.105 42.8402 226.867 42.8658C226.175 42.9401 225.799 42.7028 225.74 42.154C225.697 41.7483 225.952 41.4312 226.507 41.2027C226.579 41.195 226.685 41.1715 226.826 41.1323L228.902 40.9094C229.272 40.3145 229.694 39.6296 230.165 38.8548C230.741 37.924 231.149 37.4458 231.387 37.4201C231.626 37.3945 231.935 37.458 232.313 37.6104C232.691 37.7629 232.895 37.9704 232.923 38.2329C232.951 38.4954 232.462 39.3324 231.455 40.744C232.078 40.7012 232.89 40.6261 233.892 40.5185ZM238.289 52.1757C238.027 52.2039 237.784 52.1937 237.562 52.1452C235.989 51.8796 235.133 51.1025 234.994 49.8139C234.815 48.1435 235.658 46.0979 237.522 43.6771C239.386 41.2563 241.153 39.9562 242.824 39.7769C243.373 39.718 243.831 39.8257 244.198 40.1C244.587 40.348 244.804 40.6867 244.85 41.1162C244.994 42.4526 244.117 43.8381 242.219 45.2728C240.345 46.705 238.776 47.489 237.511 47.6248C237.32 47.6453 237.151 47.6394 237.002 47.607C236.713 48.2897 236.608 48.989 236.684 49.7049C236.818 50.9458 237.469 51.5035 238.638 51.3779C239.831 51.2499 241.285 50.2852 242.998 48.484C244.328 47.1585 245.436 45.7844 246.321 44.3618C246.505 44.0524 246.669 43.89 246.812 43.8746C246.979 43.8567 247.07 43.9193 247.086 44.0625C247.101 44.2056 247.027 44.4187 246.865 44.7017C245.758 46.5343 244.368 48.2042 242.695 49.7113C241.023 51.2185 239.554 52.04 238.289 52.1757ZM243.948 41.1407C243.917 40.8544 243.591 40.7445 242.971 40.8111C242.374 40.8751 241.565 41.4327 240.544 42.4837C239.173 43.886 238.144 45.312 237.455 46.7619C237.603 46.7942 237.761 46.8015 237.928 46.7835C238.834 46.6862 239.988 46.0796 241.389 44.9636C242.811 43.8213 243.652 42.6569 243.911 41.4705C243.946 41.3461 243.958 41.2362 243.948 41.1407Z" fill="black"/>
</svg>
